USFL
nRows=129
nColumns=2
inDegrees=yes
endheader
time	med_gas_r	
2.9375	 54.099987	
3	 54.109363	
3.0625	 54.143925	
3.125	 54.065123	
3.1875	 54.039637	
3.25	 54.036169	
3.3125	 54.005000	
3.375	 53.982880	
3.4375	 53.987658	
3.5	 53.960604	
3.5625	 54.042754	
3.625	 54.032027	
3.6875	 54.025834	
3.75	 54.005370	
3.8125	 54.007985	
3.875	 53.961651	
3.9375	 53.996057	
4	 54.026026	
4.0625	 54.034204	
4.125	 53.982984	
4.1875	 53.982467	
4.25	 53.945835	
4.3125	 53.981024	
4.375	 53.948880	
4.4375	 54.011072	
4.5	 53.973398	
4.5625	 53.956952	
4.625	 53.920851	
4.6875	 53.911523	
4.75	 53.766440	
4.8125	 53.625720	
4.875	 53.685256	
4.9375	 53.689424	
5	 53.671852	
5.0625	 53.660822	
5.125	 53.574034	
5.1875	 53.604654	
5.25	 53.578538	
5.3125	 53.548511	
5.375	 53.299648	
5.4375	 53.254114	
5.5	 53.290393	
5.5625	 53.498638	
5.625	 53.559792	
5.6875	 53.816740	
5.75	 53.946907	
5.8125	 54.051766	
5.875	 53.661382	
5.9375	 52.815914	
6	 52.813539	
6.0625	 52.395767	
6.125	 50.211404	
6.1875	 49.999076	
6.25	 49.831598	
6.3125	 48.635616	
6.375	 48.445130	
6.4375	 47.377992	
6.5	 47.076857	
6.5625	 46.741862	
6.625	 48.157036	
6.6875	 47.958663	
6.75	 48.029880	
6.8125	 47.970256	
6.875	 48.023164	
6.9375	 48.087045	
7	 47.982032	
7.0625	 47.756609	
7.125	 47.735418	
7.1875	 47.531816	
7.25	 47.387564	
7.3125	 47.289606	
7.375	 47.065566	
7.4375	 46.902765	
7.5	 46.840843	
7.5625	 46.771789	
7.625	 46.778344	
7.6875	 46.501368	
7.75	 46.345882	
7.8125	 46.129818	
7.875	 46.078720	
7.9375	 44.587282	
8	 44.464217	
8.0625	 44.354053	
8.125	 44.502507	
8.1875	 44.559510	
8.25	 44.642228	
8.3125	 44.544650	
8.375	 44.496482	
8.4375	 44.596279	
8.5	 44.634745	
8.5625	 44.647962	
8.625	 44.565751	
8.6875	 44.589385	
8.75	 44.576850	
8.8125	 44.662670	
8.875	 44.695489	
8.9375	 44.673050	
9	 44.671745	
9.0625	 44.640631	
9.125	 44.594645	
9.1875	 44.675729	
9.25	 44.706885	
9.3125	 44.757299	
9.375	 44.744540	
9.4375	 44.638774	
9.5	 44.501959	
9.5625	 44.573041	
9.625	 44.628335	
9.6875	 44.576296	
9.75	 44.659302	
9.8125	 44.731770	
9.875	 44.799576	
9.9375	 44.839503	
10	 44.955274	
10.0625	 45.167816	
10.125	 45.133092	
10.1875	 44.933031	
10.25	 46.222995	
10.3125	 48.422549	
10.375	 51.800835	
10.4375	 53.672890	
10.5	 53.567173	
10.5625	 57.132674	
10.625	 57.212966	
10.6875	 56.985030	
10.75	 56.851778	
10.8125	 56.824565	
10.875	 56.752308	
10.9375	 56.895147	
